# xmcd CD database file
#
# Track frame offsets:
#	150
#	17899
#	31202
#	47536
#	62850
#	81098
#	96929
#	115928
#	133981
#	152445
#	168742
#
# Disc length: 2452 seconds
#
# Revision: 0
# Processed by: cddbd v1.5.2PL0 Copyright (c) Steve Scherf et al.
# Submitted via: CDex 1.70beta2
#
DISCID=8e09920b
DTITLE=Taylor Swift - Taylor Swift
DYEAR=2006
DGENRE=Country
TTITLE0=Tim McGraw
TTITLE1=Picture To Burn
TTITLE2=Teardrops On My Guitar
TTITLE3=A Place In This World
TTITLE4=Cold As You
TTITLE5=The Outside
TTITLE6=Tied Together With A Smile
TTITLE7=Stay Beautiful
TTITLE8=Should 've Said No
TTITLE9=Marys Song (Oh My My My)
TTITLE10=Our Song
EXTD=YEAR: 2006
EXTT0=
EXTT1=
EXTT2=
EXTT3=
EXTT4=
EXTT5=
EXTT6=
EXTT7=
EXTT8=
EXTT9=
EXTT10=
PLAYORDER=
